HIERARCHY
ROOT Hips
{
	OFFSET 0.000000 0.000000 0.000000
	CHANNELS 6 Xposition Yposition Zposition Xrotation Yrotation Zrotation
	JOINT Spine1
	{
		OFFSET 0.000000 10.413555 0.000009
		CHANNELS 6 Xposition Yposition Zposition Xrotation Yrotation Zrotation
		JOINT Neck
		{
			OFFSET 0.000000 8.302051 0.000009
			CHANNELS 6 Xposition Yposition Zposition Xrotation Yrotation Zrotation
			JOINT Head
			{
				OFFSET 0.000000 5.278800 0.681136
				CHANNELS 6 Xposition Yposition Zposition Xrotation Yrotation Zrotation
				End Site
				{
					OFFSET 0.000000 6.811335 0.000001
				}
			}
		}
		JOINT LeftShoulder
		{
			OFFSET 1.371625 6.703465 -0.180044
			CHANNELS 6 Xposition Yposition Zposition Xrotation Yrotation Zrotation
			JOINT LeftArm
			{
				OFFSET 4.894350 0.000000 0.000000
				CHANNELS 6 Xposition Yposition Zposition Xrotation Yrotation Zrotation
				JOINT LeftForeArm
				{
					OFFSET 9.597040 0.000000 0.000000
					CHANNELS 6 Xposition Yposition Zposition Xrotation Yrotation Zrotation
					JOINT LeftHand
					{
						OFFSET 8.919184 0.000000 0.000000
						CHANNELS 6 Xposition Yposition Zposition Xrotation Yrotation Zrotation
						End Site
						{
							OFFSET 5.108500 0.000000 0.000000
						}
					}
				}
			}
		}
		JOINT RightShoulder
		{
			OFFSET -1.352705 6.703465 -0.180044
			CHANNELS 6 Xposition Yposition Zposition Xrotation Yrotation Zrotation
			JOINT RightArm
			{
				OFFSET -4.894350 0.000000 0.000000
				CHANNELS 6 Xposition Yposition Zposition Xrotation Yrotation Zrotation
				JOINT RightForeArm
				{
					OFFSET -9.597035 0.000000 0.000000
					CHANNELS 6 Xposition Yposition Zposition Xrotation Yrotation Zrotation
					JOINT RightHand
					{
						OFFSET -8.919189 0.000000 0.000000
						CHANNELS 6 Xposition Yposition Zposition Xrotation Yrotation Zrotation
						End Site
						{
							OFFSET -5.108500 0.000000 0.000000
						}
					}
				}
			}
		}
	}
	JOINT LeftUpLeg
	{
		OFFSET 3.405675 0.000000 0.000000
		CHANNELS 6 Xposition Yposition Zposition Xrotation Yrotation Zrotation
		JOINT LeftLeg
		{
			OFFSET 0.000000 -14.323091 -0.000010
			CHANNELS 6 Xposition Yposition Zposition Xrotation Yrotation Zrotation
			JOINT LeftFoot
			{
				OFFSET 0.000000 -15.016126 -0.000010
				CHANNELS 6 Xposition Yposition Zposition Xrotation Yrotation Zrotation
				JOINT LeftToeBase
				{
					OFFSET 0.000000 -2.213690 5.108510
					CHANNELS 6 Xposition Yposition Zposition Xrotation Yrotation Zrotation
					End Site
					{
						OFFSET 0.000000 0.000000 1.362270
					}
				}
			}
		}
	}
	JOINT RightUpLeg
	{
		OFFSET -3.405675 0.000000 0.000000
		CHANNELS 6 Xposition Yposition Zposition Xrotation Yrotation Zrotation
		JOINT RightLeg
		{
			OFFSET 0.000000 -14.323091 -0.000010
			CHANNELS 6 Xposition Yposition Zposition Xrotation Yrotation Zrotation
			JOINT RightFoot
			{
				OFFSET 0.000000 -15.016126 -0.000010
				CHANNELS 6 Xposition Yposition Zposition Xrotation Yrotation Zrotation
				JOINT RightToeBase
				{
					OFFSET 0.000000 -2.213690 5.108510
					CHANNELS 6 Xposition Yposition Zposition Xrotation Yrotation Zrotation
					End Site
					{
						OFFSET 0.000000 0.000000 1.362270
					}
				}
			}
		}
	}
}
MOTION
Frames: 5
Frame Time: 0.016667
1.177595 27.957127 -1.616058 11.654261 2.273444 1.015826 -0.000000 10.413552 0.000010 -5.135599 -1.255481 4.276083 0.000000 8.302056 0.000004 5.725222 2.553924 2.198591 0.000001 5.278799 0.681135 9.974060 2.983658 -4.073305 1.371623 6.703470 -0.180044 -8.889863 0.091771 21.681969 4.894346 -0.000011 -0.000003 -10.054058 -8.226882 -9.877625 9.597038 0.000004 -0.000002 -9.688706 -1.930547 2.299311 8.919176 -0.000006 0.000005 -9.487199 3.864001 -7.111125 -1.352705 6.703465 -0.180044 -4.706680 -6.142247 -18.794048 -4.894353 -0.000008 -0.000001 23.378269 19.346579 -6.300733 -9.597043 0.000006 -0.000004 61.167179 48.471725 -100.822731 -8.919191 0.000004 0.000004 5.466225 5.579690 -28.662035 3.405674 -0.000000 0.000000 -36.874637 15.441617 25.419720 -0.000001 -14.323095 -0.000010 33.494022 5.728828 -10.151994 -0.000005 -15.016131 -0.000009 0.270044 15.106437 -8.323937 0.000000 -2.213691 5.108510 0.000004 -0.000002 -0.000000 -3.405675 -0.000000 0.000001 -29.529708 4.914316 -27.691574 0.000010 -14.323091 -0.000004 41.185371 -11.851280 30.380726 0.000007 -15.016134 -0.000008 -15.783760 -31.505200 -10.820399 -0.000000 -2.213691 5.108508 0.000004 -0.000002 -0.000001 
1.201615 27.934868 -1.608263 11.577012 2.215097 1.042227 0.000000 10.413549 0.000009 -5.053606 -1.198246 4.322590 -0.000000 8.302051 0.000004 5.755147 2.547186 2.138281 -0.000000 5.278793 0.681138 10.021281 2.970309 -4.091891 1.371623 6.703457 -0.180044 -8.887635 0.114052 21.657096 4.894359 -0.000004 -0.000000 -10.052057 -8.206517 -9.922338 9.597034 -0.000007 0.000001 -9.721582 -1.916546 2.306472 8.919186 -0.000002 -0.000002 -9.516953 3.889740 -7.150972 -1.352706 6.703469 -0.180045 -4.672051 -6.145855 -18.779064 -4.894346 -0.000011 -0.000001 23.302889 19.356671 -6.159854 -9.597043 0.000002 -0.000006 61.595199 48.448441 -101.336197 -8.919191 0.000009 -0.000003 5.468440 5.563208 -28.517428 3.405675 -0.000000 0.000000 -36.876898 15.419946 25.579294 0.000005 -14.323082 -0.000004 33.809460 5.680276 -10.413032 -0.000000 -15.016128 -0.000011 -0.094221 15.154282 -8.377805 0.000003 -2.213693 5.108509 0.000001 0.000008 0.000003 -3.405675 0.000000 -0.000000 -29.332326 4.831427 -27.999146 0.000001 -14.323083 -0.000004 41.275257 -12.117828 30.787706 0.000006 -15.016136 -0.000009 -15.686923 -31.569807 -10.345182 -0.000000 -2.213691 5.108506 -0.000000 -0.000009 0.000001 
1.226830 27.911243 -1.601163 11.522153 2.136227 1.048012 -0.000000 10.413550 0.000008 -4.996645 -1.124428 4.392904 -0.000001 8.302039 0.000009 5.802283 2.541996 2.066839 0.000001 5.278801 0.681142 10.026007 2.957257 -4.070017 1.371622 6.703451 -0.180043 -8.902410 0.100196 21.660505 4.894349 -0.000007 -0.000001 -10.022398 -8.163983 -9.987752 9.597038 0.000004 0.000000 -9.767526 -1.887411 2.280619 8.919181 0.000008 -0.000002 -9.560752 3.922029 -7.125268 -1.352704 6.703446 -0.180041 -4.668720 -6.120478 -18.746178 -4.894350 -0.000005 -0.000000 23.184857 19.349883 -6.010519 -9.597039 -0.000004 -0.000003 62.027666 48.339260 -101.789968 -8.919193 0.000004 0.000005 5.616488 5.508569 -28.471872 3.405676 -0.000001 -0.000001 -36.943329 15.438587 25.748493 -0.000008 -14.323084 -0.000008 34.162677 5.744744 -10.605624 -0.000004 -15.016125 -0.000010 -0.442561 15.037718 -8.433845 0.000001 -2.213685 5.108513 -0.000004 -0.000003 0.000001 -3.405675 0.000001 -0.000001 -29.177984 4.747881 -28.278288 0.000004 -14.323077 -0.000003 41.360532 -12.356061 31.172280 0.000007 -15.016135 -0.000010 -15.457659 -31.600635 -9.949910 0.000000 -2.213688 5.108510 -0.000002 -0.000007 -0.000004 
1.248775 27.889446 -1.589903 11.471277 2.018507 1.067198 0.000000 10.413547 0.000009 -4.946922 -1.015861 4.441964 -0.000000 8.302057 0.000008 5.835790 2.524224 2.051387 -0.000000 5.278802 0.681139 10.065519 2.937639 -4.119060 1.371623 6.703468 -0.180044 -8.915349 0.114352 21.656756 4.894356 0.000008 -0.000000 -10.123287 -8.153374 -10.043853 9.597040 0.000004 -0.000000 -9.719395 -1.803630 2.262910 8.919174 0.000003 0.000003 -9.510949 3.880134 -7.194131 -1.352700 6.703465 -0.180044 -4.629459 -6.155519 -18.706949 -4.894346 -0.000004 -0.000001 23.037868 19.427642 -5.880446 -9.597046 0.000009 -0.000001 62.381101 48.206102 -102.174910 -8.919189 0.000007 -0.000001 5.764783 5.425884 -28.436504 3.405675 -0.000002 -0.000000 -36.874282 15.274559 25.906407 0.000000 -14.323087 -0.000005 34.459022 5.684427 -10.946669 -0.000004 -15.016128 -0.000010 -0.792415 15.182317 -8.318642 0.000001 -2.213691 5.108500 0.000002 0.000002 -0.000001 -3.405675 -0.000003 0.000000 -29.002486 4.755455 -28.522897 -0.000008 -14.323078 -0.000007 41.378819 -12.522741 31.507352 0.000007 -15.016126 -0.000009 -15.194840 -31.632020 -9.344853 0.000000 -2.213691 5.108515 -0.000001 -0.000001 0.000002 
1.270295 27.866812 -1.580473 11.428580 1.884388 1.065009 -0.000000 10.413547 0.000005 -4.898050 -0.915563 4.526592 0.000000 8.302063 0.000009 5.878974 2.522787 2.025129 0.000000 5.278801 0.681139 10.074825 2.934919 -4.169028 1.371623 6.703464 -0.180044 -8.926400 0.106425 21.636871 4.894349 -0.000004 -0.000001 -10.183636 -8.087955 -10.086698 9.597035 0.000002 -0.000001 -9.710900 -1.774535 2.234114 8.919184 0.000008 -0.000008 -9.500597 3.915719 -7.153074 -1.352706 6.703470 -0.180044 -4.601182 -6.160130 -18.664281 -4.894348 -0.000025 -0.000001 22.938658 19.489740 -5.796668 -9.597041 0.000002 -0.000006 62.728198 48.186650 -102.555181 -8.919185 -0.000001 -0.000003 5.826635 5.503901 -28.505682 3.405675 -0.000002 0.000000 -36.870116 15.213770 26.092419 -0.000006 -14.323086 -0.000008 34.729333 5.525825 -11.201626 -0.000006 -15.016134 -0.000010 -1.104811 15.328070 -8.235960 -0.000002 -2.213690 5.108508 -0.000001 -0.000004 -0.000003 -3.405675 0.000007 -0.000000 -28.857611 4.742280 -28.693239 0.000002 -14.323080 -0.000004 41.351792 -12.684137 31.703658 0.000006 -15.016140 -0.000009 -14.708315 -31.624145 -8.447467 0.000000 -2.213690 5.108510 -0.000005 -0.000002 -0.000001 
